<?xml version="1.0" encoding="utf-8"?>
<!-- Generator: Adobe Illustrator 18.1.1, SVG Export Plug-In . SVG Version: 6.00 Build 0)  -->
<!DOCTYPE svg PUBLIC "-//W3C//DTD SVG 1.1//EN" "http://www.w3.org/Graphics/SVG/1.1/DTD/svg11.dtd">
<svg version="1.1" xmlns="http://www.w3.org/2000/svg" xmlns:xlink="http://www.w3.org/1999/xlink" x="0px" y="0px"
	 viewBox="0 0 334.475 96.51" preserveAspectRatio="xMinYMin" enable-background="new 0 0 334.475 96.51" xml:space="preserve">
<g id="Small_Text">
	<g>
		<g>
			<path d="M6.241,75.29h7.297l0.606,10.155h0.042l2.971-10.155h6.403l-5.242,17.514H11.25l-1.096-9.123h-0.042l-2.71,9.123H1
				L6.241,75.29z"/>
			<path d="M31.817,89.812h-0.042c-0.643,1.229-1.437,2.119-2.384,2.673c-0.946,0.557-1.997,0.834-3.146,0.834
				c-0.583,0-1.125-0.073-1.626-0.22c-0.504-0.147-0.934-0.384-1.291-0.711c-0.358-0.326-0.629-0.752-0.814-1.274
				c-0.184-0.525-0.247-1.171-0.193-1.938c0.087-1.229,0.306-2.412,0.659-3.559c0.351-1.144,0.717-2.238,1.097-3.287
				c0.604-1.668,1.457-2.894,2.561-3.688c1.102-0.792,2.374-1.191,3.816-1.191c0.65,0,1.23,0.062,1.734,0.185
				c0.502,0.123,0.921,0.33,1.254,0.625c0.332,0.296,0.578,0.688,0.736,1.178c0.159,0.491,0.226,1.1,0.202,1.839h0.042l0.964-3.312
				h6.069l-4.55,14.839h-6.071L31.817,89.812z M31.829,83.236c-0.416,0-0.774,0.061-1.073,0.172c-0.3,0.116-0.558,0.29-0.777,0.528
				c-0.218,0.236-0.404,0.528-0.561,0.87c-0.155,0.344-0.312,0.735-0.467,1.18c-0.071,0.196-0.13,0.395-0.178,0.599
				c-0.05,0.205-0.082,0.397-0.094,0.578c-0.042,0.587,0.082,0.985,0.373,1.188c0.29,0.205,0.655,0.309,1.1,0.309
				c0.762,0,1.358-0.248,1.79-0.737c0.429-0.491,0.769-1.129,1.019-1.912c0.058-0.232,0.116-0.452,0.172-0.664
				c0.057-0.214,0.095-0.458,0.115-0.735c0.019-0.262-0.01-0.482-0.089-0.662c-0.077-0.179-0.183-0.323-0.322-0.43
				c-0.138-0.105-0.295-0.18-0.473-0.22C32.187,83.258,32.008,83.236,31.829,83.236z"/>
			<path d="M43.223,83.509H41.06l0.791-2.921c0.494-0.311,1.05-0.703,1.675-1.188c0.624-0.481,1.242-0.979,1.853-1.494
				c0.612-0.515,1.178-1.011,1.696-1.484c0.518-0.474,0.921-0.853,1.204-1.131h3.492l-0.856,2.675h5.217l-1.683,5.544h-5.158
				l-0.926,3.09c-0.073,0.228-0.152,0.499-0.246,0.809c-0.091,0.31-0.142,0.562-0.156,0.759c-0.044,0.624,0.486,0.935,1.595,0.935
				c0.569,0,1.1-0.058,1.594-0.172c0.493-0.114,0.979-0.221,1.457-0.319l-1.863,3.974c-0.438,0.098-0.909,0.187-1.413,0.269
				c-0.504,0.081-1.02,0.159-1.545,0.233c-0.525,0.073-1.038,0.131-1.541,0.172c-0.501,0.041-0.967,0.06-1.396,0.06
				c-0.361,0-0.762-0.016-1.204-0.049c-0.44-0.032-0.854-0.117-1.239-0.257c-0.384-0.138-0.702-0.355-0.95-0.65
				c-0.25-0.293-0.356-0.702-0.319-1.225c0.047-0.656,0.196-1.399,0.451-2.233L43.223,83.509z"/>
			<path d="M57.812,77.744c0.355,0.065,0.81,0.12,1.361,0.161c0.551,0.041,1.125,0.06,1.722,0.06h0.041
				c0.665,0,1.231-0.019,1.699-0.06c0.467-0.041,0.882-0.096,1.248-0.161l-4.483,15.059H53.33L57.812,77.744z M64.01,73.328
				c0.734,0,1.089,0.171,1.065,0.515c-0.003,0.048-0.025,0.152-0.063,0.308c-0.039,0.154-0.086,0.335-0.143,0.542
				c-0.056,0.205-0.12,0.416-0.191,0.637c-0.071,0.221-0.133,0.419-0.188,0.603c-0.123,0.358-0.429,0.571-0.918,0.637
				c-0.49,0.064-1.185,0.099-2.087,0.099h-0.957c-0.748,0-1.309-0.03-1.686-0.087c-0.379-0.059-0.557-0.225-0.537-0.502
				c0.013-0.179,0.053-0.422,0.125-0.724c0.071-0.304,0.15-0.594,0.239-0.872c0.087-0.247,0.173-0.444,0.261-0.592
				c0.085-0.146,0.212-0.264,0.376-0.354c0.167-0.089,0.404-0.149,0.711-0.175c0.305-0.022,0.721-0.034,1.25-0.034H64.01z"/>
			<path d="M63.138,87.897c0.044-0.62,0.138-1.264,0.283-1.925c0.142-0.662,0.325-1.32,0.546-1.975
				c0.22-0.653,0.467-1.287,0.75-1.902c0.279-0.612,0.574-1.171,0.889-1.681c0.297-0.486,0.636-0.917,1.017-1.284
				c0.379-0.368,0.854-0.674,1.427-0.921c0.571-0.245,1.27-0.434,2.098-0.565c0.826-0.131,1.836-0.195,3.028-0.195
				c0.443,0,0.939,0.008,1.484,0.025c0.547,0.016,1.097,0.069,1.651,0.159c0.555,0.091,1.092,0.225,1.613,0.403
				c0.521,0.183,0.978,0.439,1.371,0.773c0.391,0.335,0.696,0.757,0.918,1.263c0.22,0.505,0.304,1.129,0.252,1.862
				c-0.086,1.211-0.292,2.376-0.614,3.497c-0.322,1.119-0.736,2.219-1.243,3.3c-0.473,0.98-0.994,1.771-1.562,2.365
				c-0.568,0.598-1.194,1.066-1.878,1.399c-0.682,0.336-1.41,0.557-2.187,0.662c-0.776,0.106-1.603,0.158-2.476,0.158
				c-0.568,0-1.153-0.016-1.752-0.049c-0.601-0.032-1.185-0.106-1.752-0.22c-0.566-0.115-1.099-0.287-1.594-0.516
				c-0.497-0.229-0.922-0.542-1.274-0.944c-0.352-0.401-0.622-0.904-0.807-1.509C63.14,89.477,63.077,88.75,63.138,87.897z
				 M69.023,87.285c-0.065,0.918,0.519,1.375,1.751,1.375c0.542,0,1.002-0.147,1.384-0.444c0.379-0.293,0.694-0.653,0.939-1.078
				c0.245-0.424,0.431-0.881,0.558-1.375c0.124-0.49,0.2-0.923,0.227-1.298c0.045-0.638-0.074-1.076-0.354-1.312
				c-0.281-0.237-0.824-0.357-1.629-0.357c-0.484,0-0.895,0.136-1.232,0.405c-0.339,0.271-0.624,0.619-0.855,1.043
				c-0.231,0.426-0.41,0.904-0.54,1.435C69.144,86.209,69.062,86.746,69.023,87.285z"/>
			<path d="M83.825,77.965h6.028l-1.037,3.482h0.041c0.736-1.388,1.564-2.402,2.481-3.039c0.919-0.641,2.037-0.958,3.353-0.958
				c0.514,0,1.006,0.058,1.475,0.172c0.472,0.114,0.874,0.307,1.217,0.577c0.341,0.27,0.604,0.626,0.787,1.067
				c0.182,0.44,0.252,0.978,0.206,1.614c-0.033,0.492-0.115,0.991-0.242,1.498c-0.125,0.507-0.27,1.023-0.43,1.546l-2.692,8.879
				H88.73l1.383-4.489c0.069-0.213,0.145-0.461,0.229-0.745c0.084-0.287,0.162-0.57,0.238-0.849
				c0.073-0.277,0.142-0.536,0.199-0.772c0.059-0.236,0.094-0.432,0.104-0.577c0.035-0.475-0.064-0.801-0.293-0.98
				c-0.229-0.18-0.513-0.27-0.842-0.27c-0.293,0-0.554,0.033-0.779,0.098c-0.226,0.066-0.433,0.197-0.621,0.393
				c-0.186,0.195-0.362,0.472-0.524,0.822c-0.164,0.352-0.328,0.806-0.492,1.36l-1.76,6.01H79.42L83.825,77.965z"/>
			<path d="M108.072,89.812h-0.042c-0.642,1.229-1.437,2.119-2.384,2.673c-0.946,0.557-1.996,0.834-3.145,0.834
				c-0.582,0-1.126-0.073-1.627-0.22c-0.503-0.147-0.933-0.384-1.29-0.711c-0.358-0.326-0.632-0.752-0.814-1.274
				c-0.184-0.525-0.248-1.171-0.192-1.938c0.087-1.229,0.306-2.412,0.658-3.559c0.351-1.144,0.717-2.238,1.097-3.287
				c0.605-1.668,1.459-2.894,2.56-3.688c1.104-0.792,2.376-1.191,3.816-1.191c0.651,0,1.229,0.062,1.735,0.185
				c0.503,0.123,0.922,0.33,1.254,0.625c0.331,0.296,0.577,0.688,0.736,1.178c0.16,0.491,0.227,1.1,0.203,1.839h0.041l0.963-3.312
				h6.071l-4.552,14.839h-6.069L108.072,89.812z M108.084,83.236c-0.418,0-0.772,0.061-1.071,0.172
				c-0.302,0.116-0.56,0.29-0.777,0.528c-0.217,0.236-0.403,0.528-0.56,0.87c-0.156,0.344-0.314,0.735-0.47,1.18
				c-0.069,0.196-0.13,0.395-0.179,0.599c-0.048,0.205-0.08,0.397-0.094,0.578c-0.04,0.587,0.084,0.985,0.374,1.188
				c0.292,0.205,0.657,0.309,1.101,0.309c0.761,0,1.357-0.248,1.788-0.737c0.431-0.491,0.77-1.129,1.02-1.912
				c0.061-0.232,0.116-0.452,0.173-0.664c0.058-0.214,0.096-0.458,0.115-0.735c0.019-0.262-0.011-0.482-0.089-0.662
				c-0.076-0.179-0.183-0.323-0.321-0.43c-0.139-0.105-0.296-0.18-0.473-0.22C108.442,83.258,108.263,83.236,108.084,83.236z"/>
			<path d="M121.1,74.482h6.071l-5.467,18.321h-6.069L121.1,74.482z"/>
		</g>
		<g>
			<path d="M133.711,88.093c1.178,0.184,2.349,0.319,3.514,0.42c1.163,0.098,2.349,0.147,3.554,0.147
				c0.167,0,0.376-0.006,0.624-0.014c0.252-0.009,0.489-0.048,0.716-0.122c0.229-0.073,0.426-0.188,0.597-0.344
				c0.172-0.154,0.266-0.381,0.286-0.676c0.017-0.211-0.011-0.386-0.075-0.527c-0.066-0.14-0.239-0.245-0.517-0.318
				c-0.279-0.074-0.69-0.123-1.226-0.147c-0.541-0.024-1.273-0.035-2.203-0.035c-0.484,0-0.96-0.055-1.424-0.161
				c-0.463-0.106-0.879-0.294-1.246-0.563c-0.368-0.27-0.656-0.629-0.859-1.078c-0.203-0.452-0.282-1.019-0.232-1.708
				c0.066-0.947,0.232-1.837,0.493-2.673c0.261-0.831,0.593-1.588,1.003-2.266c0.408-0.678,0.887-1.252,1.432-1.718
				c0.547-0.466,1.139-0.806,1.778-1.02c0.355-0.113,0.741-0.204,1.164-0.269c0.418-0.065,0.849-0.117,1.287-0.158
				c0.439-0.04,0.876-0.065,1.307-0.074c0.429-0.007,0.838-0.014,1.228-0.014c0.513,0,1.1,0.009,1.766,0.025
				c0.663,0.017,1.362,0.049,2.093,0.099c0.73,0.049,1.482,0.12,2.261,0.209c0.776,0.09,1.541,0.198,2.294,0.329l-1.697,5.419
				c-0.999-0.146-1.994-0.271-2.987-0.379c-0.988-0.106-1.995-0.159-3.022-0.159c-0.624,0-1.136,0.023-1.533,0.073
				c-0.398,0.049-0.717,0.127-0.951,0.232c-0.237,0.107-0.402,0.237-0.497,0.393c-0.094,0.156-0.148,0.341-0.164,0.554
				c-0.013,0.18,0.014,0.326,0.083,0.44c0.067,0.114,0.227,0.21,0.477,0.283c0.251,0.074,0.62,0.122,1.104,0.147
				c0.483,0.024,1.134,0.035,1.95,0.035c0.598,0,1.158,0.025,1.69,0.073c0.527,0.049,0.99,0.196,1.381,0.441
				c0.392,0.245,0.691,0.627,0.898,1.141c0.204,0.515,0.274,1.231,0.21,2.147c-0.025,0.345-0.083,0.711-0.175,1.104
				c-0.09,0.393-0.192,0.776-0.309,1.154c-0.119,0.376-0.246,0.728-0.388,1.055c-0.143,0.325-0.275,0.595-0.4,0.809
				c-0.364,0.623-0.777,1.121-1.239,1.496c-0.466,0.377-1.002,0.671-1.613,0.883c-0.61,0.213-1.312,0.356-2.099,0.431
				c-0.787,0.073-1.695,0.108-2.72,0.108c-1.679,0-3.233-0.06-4.664-0.183c-1.435-0.123-2.833-0.332-4.199-0.626L133.711,88.093z"/>
			<path d="M158.224,86.894c-0.054,0.162-0.092,0.307-0.113,0.429c-0.024,0.123-0.039,0.24-0.047,0.355
				c-0.028,0.393,0.043,0.699,0.215,0.921c0.173,0.219,0.401,0.384,0.692,0.489c0.291,0.105,0.611,0.17,0.963,0.195
				c0.354,0.025,0.694,0.039,1.027,0.039c0.983,0,1.956-0.107,2.922-0.319c0.966-0.212,1.92-0.433,2.864-0.664l-1.9,3.901
				c-1.146,0.344-2.305,0.61-3.477,0.798c-1.17,0.188-2.345,0.28-3.523,0.28c-0.706,0-1.436-0.041-2.185-0.122
				c-0.75-0.082-1.426-0.277-2.026-0.588c-0.603-0.311-1.082-0.776-1.44-1.397c-0.357-0.623-0.496-1.473-0.42-2.551
				c0.058-0.804,0.184-1.62,0.382-2.454c0.197-0.835,0.439-1.633,0.722-2.392c0.283-0.762,0.59-1.46,0.919-2.097
				c0.329-0.638,0.655-1.163,0.975-1.569c0.504-0.653,1.026-1.16,1.564-1.519c0.538-0.361,1.097-0.627,1.679-0.798
				c0.581-0.173,1.18-0.278,1.799-0.319c0.619-0.041,1.271-0.062,1.947-0.062c1.387,0,2.567,0.081,3.539,0.246
				c0.972,0.163,1.749,0.439,2.331,0.834c0.583,0.393,0.992,0.919,1.23,1.583c0.234,0.658,0.318,1.49,0.247,2.485
				c-0.015,0.213-0.076,0.513-0.178,0.896c-0.104,0.384-0.223,0.783-0.356,1.204c-0.135,0.415-0.274,0.824-0.42,1.224
				c-0.146,0.4-0.276,0.726-0.392,0.971H158.224z M163.623,83.777c0.044-0.228,0.086-0.438,0.127-0.625
				c0.041-0.188,0.067-0.373,0.08-0.554c0.021-0.278-0.018-0.506-0.116-0.686c-0.098-0.179-0.227-0.318-0.388-0.417
				c-0.157-0.098-0.326-0.168-0.505-0.21c-0.176-0.04-0.336-0.06-0.473-0.06c-0.361,0-0.689,0.036-0.984,0.109
				c-0.297,0.073-0.567,0.203-0.809,0.392c-0.243,0.188-0.468,0.452-0.681,0.788c-0.209,0.334-0.411,0.756-0.598,1.262H163.623z"/>
			<path d="M172.123,77.965h5.944l-1.327,4.046h0.042c0.292-0.571,0.606-1.132,0.952-1.681c0.342-0.544,0.729-1.032,1.151-1.455
				c0.427-0.425,0.893-0.772,1.395-1.033c0.504-0.261,1.06-0.392,1.671-0.392c0.679,0,1.363,0.099,2.059,0.294l-2.339,7.994
				c-0.371-0.049-0.744-0.106-1.12-0.171c-0.375-0.066-0.753-0.099-1.126-0.099c-0.707,0-1.302,0.087-1.785,0.26
				c-0.482,0.17-0.895,0.413-1.228,0.724c-0.334,0.311-0.606,0.683-0.817,1.117c-0.21,0.432-0.39,0.903-0.536,1.409l-1.126,3.825
				h-6.196L172.123,77.965z"/>
			<path d="M184.847,77.965h6.154l-1.257,10.622h0.04l4.523-10.622h6.859l-7.877,14.839h-9.375L184.847,77.965z"/>
			<path d="M202.99,77.744c0.355,0.065,0.81,0.12,1.361,0.161c0.551,0.041,1.125,0.06,1.723,0.06h0.041
				c0.664,0,1.23-0.019,1.699-0.06c0.467-0.041,0.884-0.096,1.247-0.161l-4.484,15.059h-6.069L202.99,77.744z M209.189,73.328
				c0.734,0,1.09,0.171,1.065,0.515c-0.003,0.048-0.025,0.152-0.063,0.308c-0.039,0.154-0.086,0.335-0.143,0.542
				c-0.058,0.205-0.12,0.416-0.191,0.637c-0.071,0.221-0.134,0.419-0.19,0.603c-0.119,0.358-0.427,0.571-0.917,0.637
				c-0.488,0.064-1.186,0.099-2.087,0.099h-0.955c-0.749,0-1.312-0.03-1.688-0.087c-0.376-0.059-0.555-0.225-0.534-0.502
				c0.013-0.179,0.053-0.422,0.123-0.724c0.07-0.304,0.149-0.594,0.239-0.872c0.088-0.247,0.173-0.444,0.261-0.592
				c0.085-0.146,0.213-0.264,0.376-0.354c0.169-0.089,0.404-0.149,0.711-0.175c0.305-0.022,0.723-0.034,1.25-0.034H209.189z"/>
			<path d="M220.335,92.534c-1.199,0.278-2.401,0.479-3.609,0.602c-1.207,0.123-2.414,0.183-3.619,0.183
				c-0.735,0-1.413-0.041-2.039-0.122c-0.624-0.082-1.158-0.277-1.6-0.588c-0.444-0.311-0.775-0.769-0.993-1.372
				c-0.22-0.608-0.292-1.434-0.218-2.479c0.044-0.606,0.138-1.254,0.282-1.951c0.148-0.693,0.32-1.378,0.523-2.048
				c0.198-0.67,0.427-1.307,0.676-1.914c0.251-0.604,0.494-1.118,0.733-1.544c0.447-0.786,0.902-1.423,1.377-1.924
				c0.471-0.498,0.989-0.891,1.559-1.177c0.565-0.286,1.188-0.481,1.859-0.588c0.674-0.106,1.434-0.161,2.278-0.161
				c1.303,0,2.526,0.095,3.669,0.283c1.145,0.188,2.27,0.402,3.377,0.648l-1.67,5.322c-0.671-0.147-1.355-0.261-2.056-0.346
				c-0.701-0.081-1.438-0.122-2.216-0.122c-0.79,0-1.434,0.142-1.932,0.419c-0.497,0.278-0.884,0.6-1.16,0.967
				c-0.276,0.37-0.465,0.738-0.567,1.106c-0.102,0.367-0.158,0.634-0.171,0.797c-0.031,0.441-0.015,0.797,0.048,1.066
				c0.066,0.271,0.188,0.485,0.369,0.648c0.183,0.167,0.425,0.275,0.725,0.333c0.301,0.057,0.68,0.087,1.139,0.087
				c0.748,0,1.505-0.065,2.27-0.196c0.765-0.13,1.528-0.271,2.285-0.419L220.335,92.534z"/>
			<path d="M229.822,86.894c-0.054,0.162-0.092,0.307-0.113,0.429c-0.024,0.123-0.04,0.24-0.048,0.355
				c-0.027,0.393,0.045,0.699,0.216,0.921c0.172,0.219,0.4,0.384,0.692,0.489c0.29,0.105,0.612,0.17,0.962,0.195
				c0.354,0.025,0.695,0.039,1.026,0.039c0.985,0,1.959-0.107,2.923-0.319c0.967-0.212,1.921-0.433,2.864-0.664l-1.899,3.901
				c-1.146,0.344-2.306,0.61-3.476,0.798c-1.171,0.188-2.346,0.28-3.523,0.28c-0.706,0-1.436-0.041-2.185-0.122
				c-0.75-0.082-1.425-0.277-2.026-0.588c-0.602-0.311-1.082-0.776-1.439-1.397c-0.358-0.623-0.497-1.473-0.42-2.551
				c0.057-0.804,0.184-1.62,0.382-2.454c0.199-0.835,0.439-1.633,0.723-2.392c0.282-0.762,0.588-1.46,0.918-2.097
				c0.328-0.638,0.655-1.163,0.975-1.569c0.504-0.653,1.024-1.16,1.565-1.519c0.537-0.361,1.096-0.627,1.677-0.798
				c0.581-0.173,1.181-0.278,1.801-0.319c0.618-0.041,1.27-0.062,1.947-0.062c1.386,0,2.566,0.081,3.538,0.246
				c0.972,0.163,1.75,0.439,2.331,0.834c0.583,0.393,0.992,0.919,1.229,1.583c0.236,0.658,0.32,1.49,0.248,2.485
				c-0.014,0.213-0.074,0.513-0.176,0.896c-0.105,0.384-0.224,0.783-0.357,1.204c-0.134,0.415-0.274,0.824-0.419,1.224
				c-0.147,0.4-0.277,0.726-0.394,0.971H229.822z M235.222,83.777c0.043-0.228,0.086-0.438,0.127-0.625
				c0.041-0.188,0.067-0.373,0.08-0.554c0.02-0.278-0.019-0.506-0.117-0.686c-0.098-0.179-0.226-0.318-0.386-0.417
				c-0.161-0.098-0.328-0.168-0.505-0.21c-0.179-0.04-0.335-0.06-0.474-0.06c-0.361,0-0.689,0.036-0.985,0.109
				c-0.295,0.073-0.564,0.203-0.808,0.392c-0.243,0.188-0.468,0.452-0.681,0.788c-0.211,0.334-0.411,0.756-0.599,1.262H235.222z"/>
		</g>
		<g>
			<path d="M264.916,92.388c-0.55,0.146-1.159,0.283-1.826,0.405c-0.667,0.123-1.337,0.22-2.008,0.294
				c-0.67,0.073-1.309,0.131-1.914,0.172c-0.605,0.041-1.123,0.06-1.552,0.06c-0.958,0-1.885-0.032-2.779-0.098
				c-0.898-0.065-1.686-0.27-2.369-0.612c-0.683-0.344-1.212-0.883-1.589-1.618c-0.379-0.737-0.521-1.767-0.425-3.093
				c0.023-0.327,0.088-0.816,0.188-1.471c0.104-0.653,0.258-1.391,0.46-2.208c0.203-0.816,0.467-1.678,0.786-2.575
				c0.322-0.899,0.713-1.751,1.171-2.562c0.461-0.809,0.994-1.527,1.608-2.159c0.612-0.629,1.317-1.081,2.116-1.361
				c0.952-0.344,1.871-0.558,2.758-0.648c0.886-0.089,1.733-0.137,2.535-0.137c1.345,0,2.661,0.097,3.952,0.284
				c1.289,0.188,2.574,0.452,3.852,0.796l-1.575,5.15c-0.712-0.098-1.432-0.198-2.159-0.296c-0.73-0.1-1.468-0.148-2.215-0.148
				c-0.583,0-1.188,0.014-1.812,0.038c-0.626,0.023-1.222,0.119-1.787,0.28c-0.495,0.149-0.932,0.428-1.307,0.837
				c-0.376,0.407-0.693,0.881-0.954,1.421c-0.261,0.542-0.467,1.121-0.623,1.741c-0.156,0.621-0.255,1.212-0.295,1.769
				c-0.037,0.538,0.002,0.96,0.119,1.263c0.116,0.303,0.288,0.528,0.513,0.676c0.225,0.146,0.503,0.23,0.826,0.256
				c0.322,0.023,0.673,0.038,1.045,0.038l1.407-4.563h6.319L264.916,92.388z"/>
			<path d="M271.102,77.965h5.945l-1.327,4.046h0.04c0.292-0.571,0.608-1.132,0.952-1.681c0.343-0.544,0.729-1.032,1.153-1.455
				c0.426-0.425,0.89-0.772,1.395-1.033c0.503-0.261,1.061-0.392,1.671-0.392c0.679,0,1.365,0.099,2.059,0.294l-2.339,7.994
				c-0.37-0.049-0.745-0.106-1.121-0.171c-0.375-0.066-0.752-0.099-1.126-0.099c-0.707,0-1.303,0.087-1.784,0.26
				c-0.483,0.17-0.895,0.413-1.227,0.724c-0.334,0.311-0.607,0.683-0.817,1.117c-0.211,0.432-0.391,0.903-0.537,1.409l-1.126,3.825
				h-6.194L271.102,77.965z"/>
			<path d="M281.682,87.897c0.044-0.62,0.139-1.264,0.284-1.925c0.143-0.662,0.325-1.32,0.546-1.975
				c0.222-0.653,0.469-1.287,0.747-1.902c0.279-0.612,0.577-1.171,0.89-1.681c0.298-0.486,0.638-0.917,1.019-1.284
				c0.378-0.368,0.853-0.674,1.427-0.921c0.571-0.245,1.272-0.434,2.098-0.565c0.826-0.131,1.835-0.195,3.027-0.195
				c0.444,0,0.936,0.008,1.486,0.025c0.546,0.016,1.098,0.069,1.652,0.159c0.554,0.091,1.092,0.225,1.611,0.403
				c0.522,0.183,0.978,0.439,1.371,0.773c0.392,0.335,0.697,0.757,0.918,1.263c0.22,0.505,0.303,1.129,0.25,1.862
				c-0.086,1.211-0.291,2.376-0.611,3.497c-0.323,1.119-0.738,2.219-1.242,3.3c-0.473,0.98-0.993,1.771-1.564,2.365
				c-0.569,0.598-1.195,1.066-1.877,1.399c-0.684,0.336-1.412,0.557-2.189,0.662c-0.776,0.106-1.602,0.158-2.475,0.158
				c-0.569,0-1.153-0.016-1.753-0.049c-0.6-0.032-1.184-0.106-1.753-0.22c-0.565-0.115-1.099-0.287-1.593-0.516
				c-0.498-0.229-0.923-0.542-1.274-0.944c-0.354-0.401-0.622-0.904-0.808-1.509C281.684,89.477,281.621,88.75,281.682,87.897z
				 M287.568,87.285c-0.064,0.918,0.518,1.375,1.75,1.375c0.542,0,1.003-0.147,1.385-0.444c0.379-0.293,0.693-0.653,0.939-1.078
				c0.246-0.424,0.429-0.881,0.556-1.375c0.126-0.49,0.201-0.923,0.228-1.298c0.046-0.638-0.073-1.076-0.353-1.312
				c-0.28-0.237-0.825-0.357-1.628-0.357c-0.484,0-0.897,0.136-1.233,0.405c-0.339,0.271-0.624,0.619-0.856,1.043
				c-0.229,0.426-0.409,0.904-0.537,1.435C287.689,86.209,287.607,86.746,287.568,87.285z"/>
			<path d="M314.356,88.265c-0.251,0.805-0.6,1.52-1.046,2.148c-0.448,0.629-1.018,1.157-1.715,1.582
				c-0.695,0.425-1.532,0.751-2.513,0.982c-0.979,0.227-2.12,0.342-3.425,0.342c-0.344,0-0.756-0.009-1.233-0.024
				c-0.476-0.017-0.967-0.06-1.467-0.134c-0.5-0.073-0.991-0.187-1.473-0.343c-0.48-0.155-0.905-0.367-1.274-0.637
				c-0.368-0.272-0.655-0.615-0.862-1.031c-0.205-0.418-0.286-0.929-0.244-1.533c0.025-0.345,0.075-0.708,0.15-1.092
				c0.077-0.385,0.167-0.774,0.272-1.166c0.103-0.392,0.213-0.773,0.329-1.141c0.117-0.367,0.219-0.708,0.312-1.019l2.222-7.234
				h6.175l-2.388,7.822c-0.093,0.33-0.186,0.658-0.278,0.994c-0.094,0.338-0.147,0.585-0.157,0.749
				c-0.03,0.409,0.074,0.699,0.312,0.871c0.235,0.172,0.516,0.259,0.835,0.259c0.456,0,0.82-0.131,1.088-0.396
				c0.267-0.261,0.474-0.629,0.619-1.102l2.817-9.198h6.113L314.356,88.265z"/>
			<path d="M319.852,77.965h5.987l-1.046,3.312h0.041c0.362-0.624,0.741-1.169,1.136-1.643c0.393-0.473,0.82-0.873,1.282-1.2
				c0.46-0.33,0.965-0.574,1.517-0.737c0.554-0.165,1.17-0.246,1.849-0.246c1.342,0,2.342,0.316,2.998,0.944
				c0.654,0.63,0.938,1.606,0.842,2.931c-0.025,0.375-0.064,0.734-0.108,1.077c-0.046,0.344-0.109,0.701-0.19,1.068
				c-0.082,0.366-0.176,0.757-0.282,1.165c-0.105,0.408-0.23,0.858-0.377,1.351c-0.292,0.98-0.625,1.911-0.998,2.796
				c-0.374,0.882-0.837,1.664-1.384,2.342c-0.548,0.679-1.198,1.215-1.955,1.606c-0.756,0.393-1.652,0.588-2.691,0.588
				c-0.374,0-0.8-0.019-1.276-0.06c-0.474-0.041-0.922-0.172-1.343-0.392c-0.419-0.222-0.778-0.569-1.07-1.042
				c-0.291-0.476-0.44-1.147-0.447-2.014h-0.042l-1.953,6.698h-6.112L319.852,77.965z M323.185,87.211
				c-0.037,0.507,0.044,0.875,0.242,1.103c0.198,0.231,0.554,0.346,1.066,0.346c0.442,0,0.851-0.104,1.218-0.309
				c0.369-0.203,0.685-0.482,0.954-0.833c0.268-0.35,0.48-0.77,0.642-1.252c0.157-0.481,0.257-1.003,0.297-1.557
				c0.038-0.523-0.096-0.898-0.398-1.128c-0.302-0.229-0.67-0.346-1.097-0.346c-0.528,0-0.972,0.128-1.327,0.382
				c-0.358,0.253-0.653,0.577-0.881,0.969c-0.23,0.393-0.398,0.821-0.508,1.288C323.284,86.34,323.215,86.787,323.185,87.211z"/>
		</g>
	</g>
	<g>
		<g>
			<path fill="#00529B" d="M5.241,74.29h7.297l0.606,10.155h0.042l2.971-10.155h6.403l-5.242,17.514H10.25l-1.096-9.123H9.113
				l-2.71,9.123H0L5.241,74.29z"/>
			<path fill="#00529B" d="M30.817,88.812h-0.042c-0.643,1.229-1.437,2.119-2.384,2.673c-0.946,0.557-1.997,0.834-3.146,0.834
				c-0.583,0-1.126-0.073-1.627-0.22c-0.504-0.148-0.934-0.384-1.291-0.711c-0.358-0.326-0.629-0.752-0.814-1.274
				c-0.184-0.525-0.247-1.171-0.193-1.938c0.087-1.229,0.306-2.412,0.659-3.559c0.351-1.144,0.717-2.238,1.097-3.287
				c0.604-1.668,1.457-2.894,2.561-3.688c1.102-0.792,2.374-1.191,3.816-1.191c0.65,0,1.229,0.062,1.734,0.185
				c0.502,0.123,0.921,0.33,1.254,0.625c0.332,0.296,0.578,0.688,0.736,1.178c0.159,0.491,0.226,1.1,0.202,1.839h0.042l0.964-3.312
				h6.069l-4.55,14.839h-6.071L30.817,88.812z M30.829,82.236c-0.416,0-0.774,0.061-1.073,0.172c-0.3,0.116-0.558,0.29-0.777,0.528
				c-0.218,0.236-0.404,0.528-0.561,0.87c-0.155,0.344-0.312,0.735-0.467,1.18c-0.071,0.196-0.13,0.395-0.178,0.599
				c-0.05,0.205-0.082,0.397-0.094,0.578c-0.042,0.587,0.082,0.985,0.373,1.188c0.29,0.205,0.655,0.309,1.1,0.309
				c0.762,0,1.358-0.248,1.79-0.737c0.429-0.491,0.769-1.129,1.019-1.912c0.058-0.232,0.116-0.452,0.172-0.664
				c0.057-0.214,0.095-0.458,0.115-0.735c0.019-0.262-0.01-0.482-0.089-0.662c-0.077-0.179-0.183-0.323-0.322-0.43
				c-0.138-0.105-0.295-0.18-0.473-0.22C31.186,82.258,31.008,82.236,30.829,82.236z"/>
			<path fill="#00529B" d="M42.223,82.509H40.06l0.791-2.921c0.494-0.311,1.05-0.703,1.675-1.188
				c0.624-0.481,1.242-0.979,1.853-1.494c0.612-0.515,1.178-1.011,1.696-1.484c0.518-0.474,0.921-0.853,1.204-1.131h3.492
				l-0.856,2.675h5.217l-1.683,5.544h-5.158l-0.926,3.09c-0.073,0.228-0.152,0.499-0.246,0.809c-0.091,0.31-0.142,0.562-0.156,0.759
				c-0.044,0.624,0.486,0.935,1.595,0.935c0.569,0,1.1-0.058,1.594-0.172c0.493-0.114,0.979-0.221,1.457-0.319l-1.863,3.974
				c-0.438,0.098-0.909,0.187-1.413,0.269c-0.504,0.081-1.02,0.159-1.545,0.233c-0.525,0.073-1.038,0.131-1.541,0.172
				c-0.501,0.041-0.967,0.06-1.396,0.06c-0.361,0-0.762-0.016-1.204-0.049c-0.44-0.032-0.854-0.117-1.239-0.257
				c-0.384-0.138-0.702-0.355-0.95-0.65c-0.25-0.293-0.356-0.702-0.319-1.225c0.047-0.656,0.196-1.399,0.451-2.233L42.223,82.509z"
				/>
			<path fill="#00529B" d="M56.812,76.744c0.355,0.065,0.81,0.12,1.361,0.161c0.551,0.041,1.125,0.06,1.722,0.06h0.041
				c0.665,0,1.231-0.019,1.699-0.06c0.467-0.041,0.882-0.096,1.248-0.161l-4.483,15.059H52.33L56.812,76.744z M63.01,72.328
				c0.734,0,1.089,0.171,1.065,0.515c-0.003,0.048-0.025,0.152-0.063,0.308c-0.039,0.154-0.086,0.335-0.143,0.542
				c-0.056,0.205-0.12,0.416-0.191,0.637c-0.071,0.221-0.133,0.419-0.189,0.603c-0.122,0.358-0.429,0.571-0.918,0.637
				c-0.49,0.064-1.185,0.099-2.087,0.099h-0.957c-0.748,0-1.309-0.03-1.686-0.087c-0.379-0.059-0.557-0.225-0.537-0.502
				c0.013-0.179,0.053-0.422,0.125-0.724c0.071-0.304,0.15-0.594,0.239-0.872c0.087-0.247,0.173-0.444,0.261-0.592
				c0.085-0.146,0.212-0.264,0.376-0.354c0.167-0.089,0.404-0.149,0.711-0.175c0.305-0.022,0.721-0.034,1.25-0.034H63.01z"/>
			<path fill="#00529B" d="M62.138,86.897c0.044-0.62,0.138-1.264,0.283-1.925c0.142-0.662,0.325-1.32,0.546-1.975
				c0.22-0.653,0.467-1.287,0.75-1.902c0.279-0.612,0.574-1.171,0.889-1.681c0.297-0.486,0.636-0.917,1.017-1.284
				c0.379-0.368,0.854-0.674,1.427-0.921c0.571-0.245,1.27-0.434,2.098-0.565c0.826-0.131,1.836-0.195,3.028-0.195
				c0.443,0,0.939,0.008,1.484,0.025c0.547,0.016,1.097,0.069,1.651,0.159c0.555,0.091,1.092,0.225,1.613,0.403
				c0.521,0.183,0.978,0.439,1.371,0.773c0.391,0.335,0.696,0.757,0.918,1.263c0.22,0.505,0.304,1.129,0.252,1.862
				c-0.086,1.211-0.292,2.376-0.614,3.497c-0.322,1.119-0.736,2.219-1.243,3.3c-0.473,0.98-0.994,1.771-1.562,2.365
				c-0.568,0.598-1.194,1.066-1.878,1.399c-0.682,0.336-1.41,0.557-2.187,0.662c-0.776,0.106-1.603,0.158-2.476,0.158
				c-0.568,0-1.153-0.016-1.752-0.049c-0.601-0.032-1.185-0.106-1.752-0.22c-0.566-0.115-1.099-0.287-1.594-0.516
				c-0.497-0.229-0.922-0.542-1.274-0.944c-0.352-0.401-0.622-0.904-0.807-1.509C62.14,88.477,62.077,87.75,62.138,86.897z
				 M68.023,86.285c-0.065,0.918,0.519,1.375,1.751,1.375c0.542,0,1.002-0.147,1.384-0.444c0.379-0.293,0.694-0.653,0.939-1.078
				c0.245-0.424,0.431-0.881,0.558-1.375c0.124-0.49,0.2-0.923,0.227-1.298c0.045-0.638-0.074-1.076-0.354-1.312
				c-0.281-0.237-0.824-0.357-1.629-0.357c-0.484,0-0.895,0.136-1.232,0.405c-0.339,0.271-0.624,0.619-0.855,1.043
				c-0.231,0.426-0.41,0.904-0.54,1.435C68.144,85.209,68.062,85.746,68.023,86.285z"/>
			<path fill="#00529B" d="M82.825,76.965h6.028l-1.037,3.482h0.041c0.736-1.388,1.564-2.402,2.481-3.039
				c0.919-0.641,2.037-0.958,3.353-0.958c0.514,0,1.006,0.058,1.475,0.172c0.472,0.114,0.874,0.307,1.217,0.577
				c0.341,0.27,0.604,0.626,0.787,1.067c0.182,0.44,0.252,0.978,0.206,1.614c-0.033,0.492-0.115,0.991-0.242,1.498
				c-0.125,0.507-0.27,1.023-0.43,1.546l-2.692,8.879H87.73l1.383-4.489c0.069-0.213,0.145-0.461,0.229-0.745
				c0.084-0.287,0.162-0.57,0.238-0.849c0.073-0.277,0.142-0.536,0.199-0.772c0.059-0.236,0.094-0.432,0.104-0.577
				c0.035-0.475-0.064-0.801-0.293-0.98c-0.229-0.18-0.513-0.27-0.842-0.27c-0.293,0-0.554,0.033-0.779,0.098
				c-0.226,0.066-0.433,0.197-0.621,0.393c-0.186,0.195-0.362,0.472-0.524,0.822c-0.164,0.352-0.328,0.806-0.492,1.36l-1.76,6.01
				H78.42L82.825,76.965z"/>
			<path fill="#00529B" d="M107.072,88.812h-0.042c-0.642,1.229-1.437,2.119-2.384,2.673c-0.946,0.557-1.996,0.834-3.145,0.834
				c-0.582,0-1.126-0.073-1.627-0.22c-0.503-0.148-0.933-0.384-1.29-0.711c-0.358-0.326-0.632-0.752-0.814-1.274
				c-0.184-0.525-0.248-1.171-0.192-1.938c0.087-1.229,0.306-2.412,0.658-3.559c0.351-1.144,0.717-2.238,1.097-3.287
				c0.605-1.668,1.459-2.894,2.56-3.688c1.104-0.792,2.376-1.191,3.816-1.191c0.651,0,1.229,0.062,1.735,0.185
				c0.503,0.123,0.922,0.33,1.254,0.625c0.331,0.296,0.577,0.688,0.736,1.178c0.16,0.491,0.227,1.1,0.203,1.839h0.041l0.963-3.312
				h6.071l-4.552,14.839h-6.069L107.072,88.812z M107.084,82.236c-0.418,0-0.772,0.061-1.071,0.172
				c-0.302,0.116-0.56,0.29-0.777,0.528c-0.217,0.236-0.403,0.528-0.56,0.87c-0.156,0.344-0.314,0.735-0.47,1.18
				c-0.069,0.196-0.13,0.395-0.179,0.599c-0.048,0.205-0.08,0.397-0.094,0.578c-0.04,0.587,0.084,0.985,0.374,1.188
				c0.292,0.205,0.657,0.309,1.101,0.309c0.761,0,1.357-0.248,1.788-0.737c0.431-0.491,0.77-1.129,1.02-1.912
				c0.061-0.232,0.116-0.452,0.173-0.664c0.058-0.214,0.096-0.458,0.115-0.735c0.019-0.262-0.011-0.482-0.089-0.662
				c-0.076-0.179-0.183-0.323-0.321-0.43c-0.139-0.105-0.296-0.18-0.473-0.22C107.442,82.258,107.263,82.236,107.084,82.236z"/>
			<path fill="#00529B" d="M120.1,73.482h6.071l-5.467,18.321h-6.069L120.1,73.482z"/>
		</g>
		<g>
			<path fill="#00529B" d="M132.711,87.093c1.178,0.184,2.349,0.319,3.514,0.42c1.163,0.098,2.349,0.147,3.554,0.147
				c0.167,0,0.376-0.006,0.624-0.014c0.252-0.009,0.489-0.048,0.716-0.122c0.229-0.073,0.426-0.188,0.597-0.344
				c0.172-0.154,0.266-0.381,0.286-0.676c0.017-0.211-0.011-0.386-0.075-0.527c-0.066-0.14-0.239-0.245-0.517-0.318
				c-0.279-0.074-0.69-0.123-1.226-0.147c-0.541-0.024-1.273-0.035-2.203-0.035c-0.484,0-0.96-0.055-1.424-0.161
				c-0.463-0.106-0.879-0.294-1.246-0.563c-0.368-0.27-0.656-0.629-0.859-1.078c-0.203-0.452-0.282-1.019-0.232-1.708
				c0.066-0.947,0.232-1.837,0.493-2.673c0.261-0.831,0.593-1.588,1.003-2.266c0.408-0.678,0.887-1.252,1.432-1.718
				c0.547-0.466,1.139-0.806,1.778-1.02c0.355-0.113,0.741-0.204,1.164-0.269c0.418-0.065,0.849-0.117,1.287-0.158
				c0.439-0.04,0.876-0.065,1.307-0.074c0.429-0.007,0.838-0.014,1.228-0.014c0.513,0,1.1,0.009,1.766,0.025
				c0.663,0.017,1.362,0.049,2.093,0.099c0.73,0.049,1.482,0.12,2.261,0.209c0.776,0.09,1.541,0.198,2.294,0.329l-1.697,5.419
				c-0.999-0.146-1.994-0.271-2.987-0.379c-0.988-0.106-1.995-0.159-3.022-0.159c-0.624,0-1.136,0.023-1.533,0.073
				c-0.398,0.049-0.717,0.127-0.951,0.232c-0.237,0.107-0.402,0.237-0.497,0.393c-0.094,0.156-0.148,0.341-0.164,0.554
				c-0.013,0.18,0.014,0.326,0.083,0.44c0.067,0.114,0.227,0.21,0.477,0.283c0.251,0.074,0.62,0.122,1.104,0.147
				c0.483,0.024,1.134,0.035,1.95,0.035c0.598,0,1.158,0.025,1.69,0.073c0.527,0.049,0.99,0.196,1.381,0.441
				c0.392,0.245,0.691,0.627,0.898,1.141c0.204,0.515,0.274,1.231,0.21,2.147c-0.025,0.345-0.083,0.711-0.175,1.104
				c-0.09,0.393-0.192,0.776-0.309,1.154c-0.119,0.376-0.246,0.728-0.388,1.055c-0.143,0.325-0.275,0.595-0.4,0.809
				c-0.364,0.623-0.777,1.121-1.239,1.496c-0.466,0.377-1.002,0.671-1.613,0.883c-0.61,0.213-1.312,0.356-2.099,0.431
				c-0.787,0.073-1.695,0.108-2.72,0.108c-1.679,0-3.233-0.06-4.664-0.183c-1.435-0.123-2.833-0.332-4.199-0.626L132.711,87.093z"/>
			<path fill="#00529B" d="M157.224,85.894c-0.054,0.162-0.092,0.307-0.113,0.429c-0.024,0.123-0.039,0.24-0.047,0.355
				c-0.028,0.393,0.043,0.699,0.215,0.921c0.173,0.219,0.401,0.384,0.692,0.489c0.291,0.105,0.611,0.17,0.963,0.195
				c0.354,0.025,0.694,0.039,1.027,0.039c0.983,0,1.956-0.107,2.922-0.319c0.966-0.212,1.92-0.433,2.864-0.664l-1.9,3.901
				c-1.146,0.344-2.305,0.61-3.477,0.798c-1.17,0.188-2.345,0.28-3.523,0.28c-0.706,0-1.436-0.041-2.185-0.122
				c-0.75-0.082-1.426-0.277-2.026-0.588c-0.603-0.311-1.082-0.776-1.44-1.397c-0.357-0.623-0.496-1.473-0.42-2.551
				c0.058-0.804,0.184-1.62,0.382-2.454c0.197-0.835,0.439-1.633,0.722-2.392c0.283-0.762,0.59-1.46,0.919-2.097
				c0.329-0.638,0.655-1.163,0.975-1.569c0.504-0.653,1.026-1.16,1.564-1.519c0.538-0.361,1.097-0.627,1.679-0.798
				c0.581-0.173,1.18-0.278,1.799-0.319c0.619-0.041,1.271-0.062,1.947-0.062c1.387,0,2.567,0.081,3.539,0.246
				c0.972,0.163,1.749,0.439,2.331,0.834c0.583,0.393,0.992,0.919,1.23,1.583c0.234,0.658,0.318,1.49,0.247,2.485
				c-0.015,0.213-0.076,0.513-0.178,0.896c-0.104,0.384-0.223,0.783-0.356,1.204c-0.135,0.415-0.274,0.824-0.42,1.224
				c-0.146,0.4-0.276,0.726-0.392,0.971H157.224z M162.623,82.777c0.044-0.228,0.086-0.438,0.127-0.625
				c0.041-0.188,0.067-0.373,0.08-0.554c0.021-0.278-0.018-0.506-0.116-0.686c-0.098-0.179-0.227-0.318-0.388-0.417
				c-0.157-0.098-0.326-0.168-0.505-0.21c-0.176-0.04-0.336-0.06-0.473-0.06c-0.361,0-0.689,0.036-0.984,0.109
				c-0.297,0.073-0.567,0.203-0.809,0.392c-0.243,0.188-0.468,0.452-0.681,0.788c-0.209,0.334-0.411,0.756-0.598,1.262H162.623z"/>
			<path fill="#00529B" d="M171.123,76.965h5.944l-1.327,4.046h0.042c0.292-0.571,0.606-1.132,0.952-1.681
				c0.342-0.544,0.729-1.032,1.151-1.455c0.427-0.425,0.893-0.772,1.395-1.033c0.504-0.261,1.06-0.392,1.671-0.392
				c0.679,0,1.363,0.099,2.059,0.294l-2.339,7.994c-0.371-0.049-0.744-0.106-1.12-0.171c-0.375-0.066-0.753-0.099-1.126-0.099
				c-0.707,0-1.302,0.087-1.785,0.26c-0.482,0.17-0.895,0.413-1.228,0.724c-0.334,0.311-0.606,0.683-0.817,1.117
				c-0.21,0.432-0.39,0.903-0.536,1.409l-1.126,3.825h-6.196L171.123,76.965z"/>
			<path fill="#00529B" d="M183.847,76.965h6.154l-1.257,10.622h0.04l4.523-10.622h6.859l-7.877,14.839h-9.375L183.847,76.965z"/>
			<path fill="#00529B" d="M201.99,76.744c0.355,0.065,0.81,0.12,1.361,0.161c0.551,0.041,1.125,0.06,1.723,0.06h0.041
				c0.664,0,1.23-0.019,1.699-0.06c0.467-0.041,0.884-0.096,1.247-0.161l-4.484,15.059h-6.069L201.99,76.744z M208.189,72.328
				c0.734,0,1.09,0.171,1.065,0.515c-0.003,0.048-0.025,0.152-0.063,0.308c-0.039,0.154-0.086,0.335-0.143,0.542
				c-0.058,0.205-0.12,0.416-0.191,0.637c-0.071,0.221-0.134,0.419-0.19,0.603c-0.119,0.358-0.427,0.571-0.917,0.637
				c-0.488,0.064-1.186,0.099-2.087,0.099h-0.955c-0.749,0-1.312-0.03-1.688-0.087c-0.376-0.059-0.555-0.225-0.534-0.502
				c0.013-0.179,0.053-0.422,0.123-0.724c0.07-0.304,0.149-0.594,0.239-0.872c0.088-0.247,0.173-0.444,0.261-0.592
				c0.085-0.146,0.213-0.264,0.376-0.354c0.169-0.089,0.404-0.149,0.711-0.175c0.305-0.022,0.723-0.034,1.25-0.034H208.189z"/>
			<path fill="#00529B" d="M219.335,91.534c-1.199,0.278-2.401,0.479-3.609,0.602c-1.207,0.123-2.414,0.183-3.619,0.183
				c-0.735,0-1.413-0.041-2.039-0.122c-0.624-0.082-1.158-0.277-1.6-0.588c-0.444-0.311-0.775-0.769-0.993-1.372
				c-0.22-0.608-0.292-1.434-0.218-2.479c0.044-0.606,0.138-1.254,0.282-1.951c0.148-0.693,0.32-1.378,0.523-2.048
				c0.198-0.67,0.427-1.307,0.676-1.914c0.251-0.604,0.494-1.118,0.733-1.544c0.447-0.786,0.902-1.423,1.377-1.924
				c0.471-0.498,0.989-0.891,1.559-1.177c0.565-0.286,1.188-0.481,1.859-0.588c0.674-0.106,1.434-0.161,2.278-0.161
				c1.303,0,2.526,0.095,3.669,0.283c1.145,0.188,2.27,0.402,3.377,0.648l-1.67,5.322c-0.671-0.147-1.355-0.261-2.056-0.346
				c-0.701-0.081-1.438-0.122-2.216-0.122c-0.79,0-1.434,0.142-1.932,0.419c-0.497,0.278-0.884,0.6-1.16,0.967
				c-0.276,0.37-0.465,0.738-0.567,1.106c-0.102,0.367-0.158,0.634-0.171,0.797c-0.031,0.441-0.015,0.797,0.048,1.066
				c0.066,0.271,0.188,0.485,0.369,0.648c0.183,0.167,0.425,0.275,0.725,0.333c0.301,0.057,0.68,0.087,1.139,0.087
				c0.748,0,1.505-0.065,2.27-0.196c0.765-0.13,1.528-0.271,2.285-0.419L219.335,91.534z"/>
			<path fill="#00529B" d="M228.822,85.894c-0.054,0.162-0.092,0.307-0.113,0.429c-0.024,0.123-0.04,0.24-0.048,0.355
				c-0.027,0.393,0.045,0.699,0.216,0.921c0.172,0.219,0.4,0.384,0.692,0.489c0.29,0.105,0.612,0.17,0.962,0.195
				c0.354,0.025,0.695,0.039,1.026,0.039c0.985,0,1.959-0.107,2.923-0.319c0.967-0.212,1.921-0.433,2.864-0.664l-1.899,3.901
				c-1.146,0.344-2.306,0.61-3.476,0.798c-1.171,0.188-2.346,0.28-3.523,0.28c-0.706,0-1.436-0.041-2.185-0.122
				c-0.75-0.082-1.425-0.277-2.026-0.588c-0.602-0.311-1.082-0.776-1.439-1.397c-0.358-0.623-0.497-1.473-0.42-2.551
				c0.057-0.804,0.184-1.62,0.382-2.454c0.199-0.835,0.439-1.633,0.723-2.392c0.282-0.762,0.588-1.46,0.918-2.097
				c0.328-0.638,0.655-1.163,0.975-1.569c0.504-0.653,1.024-1.16,1.565-1.519c0.537-0.361,1.096-0.627,1.677-0.798
				c0.581-0.173,1.181-0.278,1.801-0.319c0.618-0.041,1.27-0.062,1.947-0.062c1.386,0,2.566,0.081,3.538,0.246
				c0.972,0.163,1.75,0.439,2.331,0.834c0.583,0.393,0.992,0.919,1.229,1.583c0.236,0.658,0.32,1.49,0.248,2.485
				c-0.014,0.213-0.074,0.513-0.176,0.896c-0.105,0.384-0.224,0.783-0.357,1.204c-0.134,0.415-0.274,0.824-0.419,1.224
				c-0.147,0.4-0.277,0.726-0.394,0.971H228.822z M234.222,82.777c0.043-0.228,0.086-0.438,0.127-0.625
				c0.041-0.188,0.067-0.373,0.08-0.554c0.02-0.278-0.019-0.506-0.117-0.686c-0.098-0.179-0.226-0.318-0.386-0.417
				c-0.161-0.098-0.328-0.168-0.505-0.21c-0.179-0.04-0.335-0.06-0.474-0.06c-0.361,0-0.689,0.036-0.985,0.109
				c-0.295,0.073-0.564,0.203-0.808,0.392c-0.243,0.188-0.468,0.452-0.681,0.788c-0.211,0.334-0.411,0.756-0.599,1.262H234.222z"/>
		</g>
		<g>
			<path fill="#00529B" d="M263.916,91.388c-0.55,0.146-1.159,0.283-1.826,0.405c-0.667,0.123-1.337,0.22-2.008,0.294
				c-0.67,0.073-1.309,0.131-1.914,0.172c-0.605,0.041-1.123,0.06-1.552,0.06c-0.958,0-1.885-0.032-2.779-0.098
				c-0.898-0.065-1.686-0.27-2.369-0.612c-0.683-0.344-1.212-0.883-1.589-1.618c-0.379-0.737-0.521-1.767-0.425-3.093
				c0.023-0.327,0.088-0.816,0.188-1.471c0.104-0.653,0.258-1.391,0.46-2.208c0.203-0.816,0.467-1.678,0.786-2.575
				c0.322-0.899,0.713-1.751,1.171-2.562c0.461-0.809,0.994-1.527,1.608-2.159c0.612-0.629,1.317-1.081,2.116-1.361
				c0.952-0.344,1.871-0.558,2.758-0.648c0.886-0.089,1.733-0.137,2.535-0.137c1.345,0,2.661,0.097,3.952,0.284
				c1.289,0.188,2.574,0.452,3.852,0.796l-1.575,5.15c-0.712-0.098-1.432-0.198-2.159-0.296c-0.73-0.1-1.468-0.148-2.215-0.148
				c-0.583,0-1.188,0.014-1.812,0.038c-0.626,0.023-1.222,0.119-1.787,0.28c-0.495,0.149-0.932,0.428-1.307,0.837
				c-0.376,0.407-0.693,0.881-0.954,1.421c-0.261,0.542-0.467,1.121-0.623,1.741c-0.156,0.621-0.255,1.212-0.295,1.769
				c-0.037,0.538,0.002,0.96,0.119,1.263c0.116,0.303,0.288,0.528,0.513,0.676c0.225,0.146,0.503,0.23,0.826,0.256
				c0.322,0.023,0.673,0.038,1.045,0.038l1.407-4.563h6.319L263.916,91.388z"/>
			<path fill="#00529B" d="M270.102,76.965h5.945l-1.327,4.046h0.04c0.292-0.571,0.608-1.132,0.952-1.681
				c0.343-0.544,0.729-1.032,1.153-1.455c0.426-0.425,0.89-0.772,1.395-1.033c0.503-0.261,1.061-0.392,1.671-0.392
				c0.679,0,1.365,0.099,2.059,0.294l-2.339,7.994c-0.37-0.049-0.745-0.106-1.121-0.171c-0.375-0.066-0.752-0.099-1.126-0.099
				c-0.707,0-1.303,0.087-1.784,0.26c-0.483,0.17-0.895,0.413-1.227,0.724c-0.334,0.311-0.607,0.683-0.817,1.117
				c-0.211,0.432-0.391,0.903-0.537,1.409l-1.126,3.825h-6.194L270.102,76.965z"/>
			<path fill="#00529B" d="M280.682,86.897c0.044-0.62,0.139-1.264,0.284-1.925c0.143-0.662,0.325-1.32,0.546-1.975
				c0.222-0.653,0.469-1.287,0.747-1.902c0.279-0.612,0.577-1.171,0.89-1.681c0.298-0.486,0.638-0.917,1.019-1.284
				c0.378-0.368,0.853-0.674,1.427-0.921c0.571-0.245,1.272-0.434,2.098-0.565c0.826-0.131,1.835-0.195,3.027-0.195
				c0.444,0,0.936,0.008,1.486,0.025c0.546,0.016,1.098,0.069,1.652,0.159c0.554,0.091,1.092,0.225,1.611,0.403
				c0.522,0.183,0.978,0.439,1.371,0.773c0.392,0.335,0.697,0.757,0.918,1.263c0.22,0.505,0.303,1.129,0.25,1.862
				c-0.086,1.211-0.291,2.376-0.611,3.497c-0.323,1.119-0.738,2.219-1.242,3.3c-0.473,0.98-0.993,1.771-1.564,2.365
				c-0.569,0.598-1.195,1.066-1.877,1.399c-0.684,0.336-1.412,0.557-2.189,0.662c-0.776,0.106-1.602,0.158-2.475,0.158
				c-0.569,0-1.153-0.016-1.753-0.049c-0.6-0.032-1.184-0.106-1.753-0.22c-0.565-0.115-1.099-0.287-1.593-0.516
				c-0.498-0.229-0.923-0.542-1.274-0.944c-0.354-0.401-0.622-0.904-0.808-1.509C280.684,88.477,280.621,87.75,280.682,86.897z
				 M286.568,86.285c-0.064,0.918,0.518,1.375,1.75,1.375c0.542,0,1.003-0.147,1.385-0.444c0.379-0.293,0.693-0.653,0.939-1.078
				c0.246-0.424,0.429-0.881,0.556-1.375c0.126-0.49,0.201-0.923,0.228-1.298c0.046-0.638-0.073-1.076-0.353-1.312
				c-0.28-0.237-0.825-0.357-1.628-0.357c-0.484,0-0.897,0.136-1.233,0.405c-0.339,0.271-0.624,0.619-0.856,1.043
				c-0.229,0.426-0.409,0.904-0.537,1.435C286.689,85.209,286.607,85.746,286.568,86.285z"/>
			<path fill="#00529B" d="M313.356,87.265c-0.251,0.805-0.6,1.52-1.046,2.148c-0.448,0.629-1.018,1.157-1.715,1.582
				c-0.695,0.425-1.532,0.751-2.513,0.982c-0.979,0.227-2.12,0.342-3.425,0.342c-0.344,0-0.756-0.009-1.233-0.024
				c-0.476-0.017-0.967-0.06-1.467-0.134c-0.5-0.073-0.991-0.186-1.473-0.343c-0.48-0.155-0.905-0.367-1.274-0.637
				c-0.368-0.272-0.655-0.615-0.862-1.031c-0.205-0.418-0.286-0.929-0.244-1.533c0.025-0.345,0.075-0.708,0.15-1.092
				c0.077-0.385,0.167-0.774,0.272-1.166c0.103-0.392,0.213-0.773,0.329-1.141c0.117-0.367,0.219-0.708,0.312-1.019l2.222-7.234
				h6.175l-2.388,7.822c-0.093,0.33-0.186,0.658-0.278,0.994c-0.094,0.338-0.147,0.585-0.157,0.749
				c-0.03,0.409,0.074,0.699,0.312,0.871c0.235,0.172,0.516,0.259,0.835,0.259c0.456,0,0.82-0.131,1.088-0.396
				c0.267-0.261,0.474-0.629,0.619-1.102l2.817-9.198h6.113L313.356,87.265z"/>
			<path fill="#00529B" d="M318.852,76.965h5.987l-1.046,3.312h0.041c0.362-0.624,0.741-1.169,1.136-1.643
				c0.393-0.473,0.82-0.873,1.282-1.2c0.46-0.33,0.965-0.574,1.517-0.737c0.554-0.165,1.17-0.246,1.849-0.246
				c1.342,0,2.342,0.316,2.998,0.944c0.654,0.63,0.938,1.606,0.842,2.931c-0.025,0.375-0.064,0.734-0.108,1.077
				c-0.046,0.344-0.109,0.701-0.19,1.068c-0.082,0.366-0.176,0.757-0.282,1.165c-0.105,0.408-0.23,0.858-0.377,1.351
				c-0.292,0.98-0.625,1.911-0.998,2.796c-0.374,0.882-0.837,1.664-1.384,2.342c-0.548,0.679-1.198,1.215-1.955,1.606
				c-0.756,0.393-1.652,0.588-2.691,0.588c-0.374,0-0.8-0.019-1.276-0.06c-0.474-0.041-0.922-0.172-1.343-0.392
				c-0.419-0.222-0.778-0.569-1.07-1.042c-0.291-0.476-0.44-1.147-0.447-2.014h-0.042l-1.953,6.698h-6.112L318.852,76.965z
				 M322.185,86.211c-0.037,0.507,0.044,0.875,0.242,1.103c0.198,0.231,0.554,0.346,1.066,0.346c0.442,0,0.851-0.104,1.218-0.309
				c0.369-0.203,0.685-0.482,0.954-0.833c0.268-0.35,0.48-0.77,0.642-1.252c0.157-0.481,0.257-1.003,0.297-1.557
				c0.038-0.523-0.096-0.898-0.398-1.128c-0.302-0.229-0.67-0.346-1.097-0.346c-0.528,0-0.972,0.128-1.327,0.382
				c-0.358,0.253-0.653,0.577-0.881,0.969c-0.23,0.393-0.398,0.821-0.508,1.288C322.284,85.34,322.215,85.787,322.185,86.211z"/>
		</g>
	</g>
	<g>
		<path d="M54.77,40.84H42.649l11.969-19.182h0.151V40.84z M5.077,61.441h25.908l4.695-7.761H54.77v7.761H78.1V8.145H37.576
			L5.077,61.441z"/>
		<path d="M114.611,23.745h10.529c3.182,0,4.697,1.196,4.697,4.182c0,6.866-4.544,8.436-7.197,8.436h-11.59L114.611,23.745z
			 M81.51,61.441h23.104l3.483-12.24h24.847c18.484,0,20.984-22.246,20.984-27.993c0-8.808-3.031-13.063-15.075-13.063H96.281
			L81.51,61.441z"/>
		<path d="M161.797,15.61c2.648,0.372,6.965,0.672,11.283,0.672h0.152c4.773,0,8.027-0.3,10.682-0.672L171.49,61.441h-22.119
			L161.797,15.61z M183.23,2.174c2.652,0,4.02,0.522,4.02,1.566c0,0.599-0.912,4.18-1.596,6.346
			c-0.682,2.165-4.238,2.239-10.756,2.239h-3.482c-5.455,0-8.258-0.074-8.258-1.792c0-1.119,0.377-3.134,0.908-4.851
			c1.063-2.985,1.443-3.508,9.166-3.508H183.23z"/>
		<path fill="#00529B" d="M53.379,39.84H41.258l11.969-19.186h0.152V39.84z M3.685,60.443h25.908l4.694-7.764h19.091v7.764h23.33
			V7.143H36.183L3.685,60.443z"/>
		<path fill="#00529B" d="M113.221,22.744h10.53c3.179,0,4.692,1.194,4.692,4.182c0,6.866-4.541,8.435-7.191,8.435H109.66
			L113.221,22.744z M80.117,60.443h23.105l3.484-12.243h24.848c18.482,0,20.98-22.245,20.98-27.993
			c0-8.81-3.031-13.065-15.074-13.065h-42.57L80.117,60.443z"/>
		<path fill="#00529B" d="M160.402,14.607c2.652,0.374,6.969,0.674,11.285,0.674h0.152c4.775,0,8.033-0.3,10.682-0.674
			l-12.42,45.836H147.98L160.402,14.607z M181.84,1.172c2.652,0,4.016,0.523,4.016,1.568c0,0.597-0.91,4.18-1.592,6.345
			c-0.682,2.165-4.242,2.237-10.758,2.237h-3.484c-5.451,0-8.254-0.072-8.254-1.791c0-1.118,0.379-3.135,0.908-4.851
			c1.059-2.985,1.438-3.509,9.164-3.509H181.84z"/>
	</g>
</g>
<g id="cog">
	<path d="M250.78,20.87l-6.659-0.028c-3.189-0.295-5.156-2.878-4.698-6.138l-0.005-0.002l1.632-6.649
		c1.024-4.174-1.503-7.553-5.643-7.553h-12.483c-4.139,0-8.325,3.379-9.35,7.553l-1.612,6.604c-1.094,3.272-4.292,5.884-7.601,6.228
		l-6.636-0.036c-4.155,0-8.349,3.367-9.368,7.523l-3.078,12.533c-1.02,4.156,1.52,7.527,5.674,7.527l6.575,0.005
		c3.189,0.294,5.155,2.874,4.697,6.136l-1.622,6.62c-1.025,4.176,1.499,7.556,5.638,7.556h12.486c4.139,0,8.327-3.38,9.351-7.556
		l1.621-6.618c1.143-3.257,4.381-5.839,7.712-6.136l6.597,0.016c4.155,0,8.351-3.37,9.371-7.528l3.075-12.532
		C257.475,24.239,254.934,20.87,250.78,20.87z M215.479,53.907c-10.452,0-16.837-8.506-14.263-18.997
		c2.576-10.495,13.138-19,23.589-19c10.452,0,16.838,8.505,14.262,19C236.491,45.401,225.931,53.907,215.479,53.907z"/>
	<path fill="#D1D3D4" d="M249.589,20.37l-6.659-0.028c-3.188-0.295-5.156-2.878-4.698-6.138l-0.005-0.002l1.632-6.649
		C240.883,3.379,238.355,0,234.216,0h-12.483c-4.139,0-8.325,3.379-9.35,7.553l-1.612,6.605c-1.094,3.272-4.292,5.884-7.601,6.228
		l-6.636-0.036c-4.155,0-8.349,3.367-9.368,7.523l-3.078,12.533c-1.02,4.156,1.52,7.527,5.674,7.527l6.575,0.005
		c3.188,0.294,5.155,2.874,4.697,6.136l-1.622,6.62c-1.025,4.176,1.499,7.556,5.638,7.556h12.486c4.139,0,8.327-3.38,9.351-7.556
		l1.621-6.618c1.143-3.257,4.381-5.839,7.712-6.136l6.597,0.016c4.155,0,8.351-3.37,9.371-7.528l3.075-12.532
		C256.284,23.739,253.742,20.37,249.589,20.37z M214.287,53.407c-10.452,0-16.837-8.506-14.263-18.997
		c2.576-10.495,13.138-19,23.589-19c10.452,0,16.838,8.505,14.262,19C235.3,44.901,224.739,53.407,214.287,53.407z"/>
</g>
</svg>
